<svg width="316" height="316" viewBox="0 0 316 316" fill="none" xmlns="http://www.w3.org/2000/svg">
<path d="M246.13 241.53C240.043 241.552 234.012 240.368 228.386 238.045C222.76 235.723 217.649 232.309 213.35 228L166 180.62C164.325 179.019 162.097 178.125 159.78 178.125C157.463 178.125 155.235 179.019 153.56 180.62L106.05 228.13C101.753 232.445 96.6444 235.866 91.018 238.195C85.3916 240.525 79.3594 241.716 73.27 241.7H64L124 301.7C132.999 310.68 145.192 315.723 157.905 315.723C170.618 315.723 182.811 310.68 191.81 301.7L251.93 241.57L246.13 241.53Z" fill="#32BCAD"/>
<path d="M73.28 74.09C79.3695 74.0737 85.4018 75.2646 91.0283 77.5938C96.6548 79.923 101.764 83.3444 106.06 87.66L153.57 135.18C155.221 136.826 157.458 137.751 159.79 137.751C162.122 137.751 164.359 136.826 166.01 135.18L213.35 87.84C217.643 83.519 222.751 80.0935 228.378 77.7623C234.005 75.4311 240.039 74.2406 246.13 74.26H251.83L191.71 14.14C187.258 9.68648 181.972 6.15365 176.155 3.74333C170.337 1.333 164.102 0.0924072 157.805 0.0924072C151.508 0.0924072 145.273 1.333 139.455 3.74333C133.638 6.15365 128.352 9.68648 123.9 14.14L64 74.09H73.28Z" fill="#32BCAD"/>
<path d="M301.56 124L265.23 87.67C264.411 88.0049 263.535 88.1814 262.65 88.19H246.13C237.534 88.2115 229.293 91.6256 223.2 97.69L175.86 145C171.597 149.256 165.819 151.646 159.795 151.646C153.771 151.646 147.993 149.256 143.73 145L96.2101 97.51C90.1188 91.4419 81.878 88.0242 73.2801 88H53.0001C52.1643 87.9812 51.3383 87.8153 50.5601 87.51L14.0001 124C5.02041 132.999 -0.0227051 145.192 -0.0227051 157.905C-0.0227051 170.618 5.02041 182.811 14.0001 191.81L50.4801 228.29C51.2567 227.979 52.0837 227.813 52.9201 227.8H73.2801C81.8778 227.775 90.1182 224.357 96.2101 218.29L143.72 170.78C152.31 162.2 167.28 162.2 175.86 170.78L223.2 218.11C229.293 224.174 237.534 227.589 246.13 227.61H262.65C263.535 227.616 264.411 227.793 265.23 228.13L301.56 191.8C306.014 187.348 309.546 182.062 311.957 176.245C314.367 170.427 315.608 164.192 315.608 157.895C315.608 151.598 314.367 145.363 311.957 139.545C309.546 133.728 306.014 128.442 301.56 123.99" fill="#32BCAD"/>
</svg>
